<svg width="246" height="80" viewBox="0 0 246 80" fill="none" xmlns="http://www.w3.org/2000/svg">
<g clip-path="url(#clip0_1416_12091)">
<path d="M126.632 39.5293H124.292L105.012 77.4093V79.5293H113.692L125.592 56.1993L136.522 79.5293H144.552V77.4093L126.632 39.5293Z" fill="#2EB692"/>
<path d="M71.3414 47.5193H52.6814V54.8793H68.0914V62.8693H52.6814V71.5393H71.1714V79.5293H44.6914V39.5293H71.3414V47.5193Z" fill="#2EB692"/>
<path d="M85.6111 71.5393H100.501V79.4693H77.6211V39.5293H85.6111V71.5393Z" fill="#2EB692"/>
<path d="M154.16 79.5293H156.5L175.79 41.6393V39.5293H167.11L155.2 62.8493L144.27 39.5293H136.25V41.6393L154.16 79.5293Z" fill="#1567A9"/>
<path d="M17.92 79.5293H20.26L39.54 41.6393V39.5293H30.86L18.95 62.8493L8.03 39.5293H0V41.6393L17.92 79.5293Z" fill="#2EB692"/>
<path d="M231.928 39.5293V47.5193H220.858V79.5293H212.868V47.5193H201.738V39.5293H231.918H231.928Z" fill="#1567A9"/>
<path d="M185.262 79.4707V53.7107C185.262 52.1807 185.192 50.9007 185.062 49.8607C184.932 48.8207 184.692 47.9607 184.362 47.2707C184.032 46.5807 183.572 46.0507 182.992 45.6807C182.412 45.3107 181.702 45.0007 180.852 44.7607L185.662 39.7207C187.442 39.8707 188.852 40.3307 189.902 41.0907C190.952 41.8507 191.732 42.8307 192.272 44.0107C192.812 45.2007 193.152 46.5507 193.312 48.0807C193.472 49.6107 193.542 51.2207 193.542 52.8907V79.4707H185.262Z" fill="#1567A9"/>
<path d="M192.749 31.2006C192.749 34.2706 190.259 36.7606 187.189 36.7606C184.119 36.7606 181.629 34.2706 181.629 31.2006C181.629 28.1306 184.119 25.6406 187.189 25.6406C190.259 25.6406 192.749 28.1306 192.749 31.2006Z" fill="#1567A9"/>
<path d="M130.793 10.79L136.223 0H131.383H125.293L130.793 10.79Z" fill="#1567A9"/>
<path d="M115.752 0H111.522H106.762L121.382 29.46L126.042 20.21L115.752 0Z" fill="#2EB692"/>
<path d="M240.171 45.0108C237.151 45.0108 234.691 42.5508 234.691 39.5308C234.691 36.5108 237.151 34.0508 240.171 34.0508C243.191 34.0508 245.651 36.5108 245.651 39.5308C245.651 42.5508 243.191 45.0108 240.171 45.0108ZM240.171 34.9408C237.641 34.9408 235.581 37.0008 235.581 39.5308C235.581 42.0608 237.641 44.1208 240.171 44.1208C242.701 44.1208 244.761 42.0608 244.761 39.5308C244.761 37.0008 242.701 34.9408 240.171 34.9408Z" fill="#1567A9"/>
<path d="M242.621 40.7414C242.461 40.0014 242.141 39.6214 241.561 39.4214V39.3514C242.271 39.1614 242.751 38.7114 242.751 38.1914C242.751 37.6714 242.521 37.2914 242.201 37.0714C241.821 36.8514 241.301 36.6914 240.141 36.6914C239.081 36.6914 238.251 36.7814 237.891 36.8514V41.9614H239.461V40.0914H239.971C240.481 40.0914 240.741 40.3514 240.841 40.8714C240.941 41.3214 241.031 41.7714 241.201 41.9614H242.961C242.871 41.7614 242.771 41.4714 242.611 40.7414H242.621ZM239.981 39.0414H239.531V37.8114C239.661 37.8114 239.851 37.7814 240.051 37.7814C240.591 37.7814 240.951 38.0114 240.951 38.4214C240.951 38.8114 240.571 39.0414 239.981 39.0414Z" fill="#1567A9"/>
</g>
<defs>
<clipPath id="clip0_1416_12091">
<rect width="245.65" height="79.53" fill="white"/>
</clipPath>
</defs>
</svg>
